<svg width="449" height="59" viewBox="0 0 449 59" fill="none" xmlns="http://www.w3.org/2000/svg">
<path d="M30.7094 12.4832L25.4675 17.0046V4.71814H30.7094V12.4832ZM30.7094 50.5714L25.4675 50.6206V22.9881L30.7094 18.4668V50.5714ZM33.1381 16.2557L34.9436 14.6584V0H21.2266L21.1775 55.5106L28.1585 59L34.9802 55.5597L34.9468 17.9506L33.1381 16.2557Z" fill="#BC222D"/>
<path d="M9.67694 5.93888L7.54427 3.04662H2.31322H0V7.05151H2.05755V42.8058L6.80961 47.4747V9.38652L9.69316 12.8204L12.6085 9.41113V53.2127L17.194 56.6958V3.00984H11.9289L9.67694 5.93888Z" fill="#BC222D"/>
<path d="M49.4661 15.0945L43.6242 19.7629V7.07716H49.4661V15.0945ZM41.0507 3.04699H40.4397H39.1172V56.6899L43.6549 53.1516V25.5499L49.0063 22.2368L49.4612 23.2364V47.4505L53.9243 43.519V22.0649L52.1069 20.3517L53.9243 18.8162V8.57954H55.9737V7.05195L56 3.04341L41.0507 3.04699Z" fill="#BC222D"/>
<path d="M446.611 33.5782C446.611 33.2744 446.763 33.1226 447.067 33.1226H448.461C448.765 33.1226 448.917 33.2775 448.917 33.5873V34.9543C448.917 35.2581 448.762 35.41 448.452 35.41H447.067C446.763 35.41 446.611 35.252 446.611 34.9361V33.5782Z" fill="#BC222D"/>
<path d="M444.752 35.4191H425.578C423.786 35.4191 422.889 34.4956 422.889 32.6487V26.7342C422.889 24.9358 423.786 24.0366 425.578 24.0366H444.752V26.2967H426.088C425.487 26.2967 425.186 26.5883 425.186 27.1716V32.2295C425.186 32.8492 425.475 33.159 426.052 33.159H444.752V35.4191Z" fill="#BC222D"/>
<path d="M418.305 33.5782C418.305 33.2744 418.457 33.1226 418.761 33.1226H420.155C420.459 33.1226 420.611 33.2775 420.611 33.5873V34.9543C420.611 35.2581 420.456 35.41 420.146 35.41H418.761C418.457 35.41 418.305 35.252 418.305 34.9361V33.5782Z" fill="#BC222D"/>
<path d="M416.465 35.4189H394.584V24.0273H396.871V33.1497H416.465V35.4189Z" fill="#BC222D"/>
<path d="M390.036 33.5782C390.036 33.2744 390.188 33.1226 390.492 33.1226H391.886C392.19 33.1226 392.342 33.2775 392.342 33.5873V34.9543C392.342 35.2581 392.187 35.41 391.877 35.41H390.492C390.188 35.41 390.036 35.252 390.036 34.9361V33.5782Z" fill="#BC222D"/>
<path d="M388.195 35.4189H366.314V24.0273H368.602V33.1497H388.195V35.4189Z" fill="#BC222D"/>
<path d="M351.724 32.6212C351.724 34.4864 350.794 35.4189 348.935 35.4189H329.843L329.87 33.1589H348.534C349.136 33.1589 349.443 32.8794 349.455 32.3204L349.464 31.7645C349.476 31.163 349.163 30.8623 348.525 30.8623H332.604C330.763 30.8623 329.843 30.0087 329.843 28.3015V26.7887C329.843 24.9417 330.745 24.0182 332.55 24.0182L351.724 24V26.2874H333.033C332.431 26.2874 332.13 26.5912 332.13 27.1988V27.6544C332.13 28.2741 332.425 28.584 333.014 28.584H348.935C350.794 28.584 351.724 29.4832 351.724 31.2815V32.6212Z" fill="#BC222D"/>
<path d="M327.975 35.4186H306.103V24.0088H327.975V26.2962H308.418V28.5837H327.975V30.8711H308.418V33.1494H327.975V35.4186Z" fill="#BC222D"/>
<path d="M304.226 35.4191H285.051C283.259 35.4191 282.363 34.4956 282.363 32.6487V26.7342C282.363 24.9358 283.259 24.0366 285.051 24.0366H304.226V26.2967H285.562C284.96 26.2967 284.659 26.5883 284.659 27.1716V32.2295C284.659 32.8492 284.948 33.159 285.525 33.159H304.226V35.4191Z" fill="#BC222D"/>
<path d="M278.171 35.3825V24H280.495V35.3825H278.171Z" fill="#BC222D"/>
<path d="M272.721 24H275.92L264.701 35.4098H261.594L250.393 24.0273H253.556L263.152 33.1953L272.721 24Z" fill="#BC222D"/>
<path d="M248.589 35.4189H245.809L243.057 31.7645H228.986V35.4189H226.68L226.708 24.0273H245.855C247.659 24.0273 248.561 24.9235 248.561 26.7158V29.0488C248.561 30.8593 247.641 31.7645 245.8 31.7645L248.589 35.4189ZM245.308 26.2966H228.986V29.5044H245.381C245.982 29.5044 246.286 29.1824 246.292 28.5384L246.31 27.217C246.317 26.6034 245.982 26.2966 245.308 26.2966Z" fill="#BC222D"/>
<path d="M224.812 35.4186H202.94V24.0088H224.812V26.2962H205.255V28.5837H224.812V30.8711H205.255V33.1494H224.812V35.4186Z" fill="#BC222D"/>
<path d="M201.081 32.6212C201.081 34.4864 200.152 35.4189 198.293 35.4189H179.2L179.228 33.1589H197.892C198.493 33.1589 198.8 32.8794 198.812 32.3204L198.821 31.7645C198.833 31.163 198.52 30.8623 197.882 30.8623H181.962C180.121 30.8623 179.2 30.0087 179.2 28.3015V26.7887C179.2 24.9417 180.102 24.0182 181.907 24.0182L201.081 24V26.2874H182.39C181.788 26.2874 181.488 26.5912 181.488 27.1988V27.6544C181.488 28.2741 181.782 28.584 182.372 28.584H198.293C200.152 28.584 201.081 29.4832 201.081 31.2815V32.6212Z" fill="#BC222D"/>
<path d="M162.35 32.2477V27.2627C162.35 26.6248 162.046 26.3058 161.439 26.3058H145.964C145.357 26.3058 145.053 26.6035 145.053 27.1989V32.2204C145.053 32.8401 145.357 33.1499 145.964 33.1499H161.457C162.052 33.1499 162.35 32.8492 162.35 32.2477ZM145.481 35.4191C143.659 35.4191 142.747 34.5047 142.747 32.676V26.7706C142.747 24.9479 143.65 24.0366 145.454 24.0366H161.849C163.702 24.0366 164.628 24.9692 164.628 26.8344V32.7307C164.628 34.5047 163.732 35.3918 161.94 35.3918L145.481 35.4191Z" fill="#BC222D"/>
<path d="M129.533 35.4189H126.799V26.3148H115.389V24H140.906V26.2874H129.533V35.4189Z" fill="#BC222D"/>
<path d="M111.288 32.2111V24.0273H113.539V32.6212C113.539 34.4864 112.625 35.4189 110.796 35.4189H94.3922C92.5695 35.4189 91.6582 34.4864 91.6582 32.6212V24.0273H93.9639V32.2111C93.9639 32.849 94.2616 33.168 94.857 33.168L110.395 33.1497C110.991 33.1497 111.288 32.8369 111.288 32.2111Z" fill="#BC222D"/>
<path d="M89.8628 35.4004H87.5571V31.7369H70.2692V35.4004H68V26.8339C68 24.9505 68.9144 24.0088 70.7431 24.0088H87.1106C88.9454 24.0088 89.8628 24.9596 89.8628 26.8612V35.4004ZM70.2692 29.4585H87.5571V27.1984C87.5571 26.597 87.2533 26.2962 86.6458 26.2962H71.1805C70.573 26.2962 70.2692 26.6061 70.2692 27.2258V29.4585Z" fill="#BC222D"/>
</svg>
